<svg preserveAspectRatio="none" overflow="visible" style="display: block;" width="1440" height="900" viewBox="0 0 1440 900" fill="none" xmlns="http://www.w3.org/2000/svg">
<g id="Graph / warm constellation relations" clip-path="url(#clip0_0_19)">
<g id="Group">
<path id="Vector" d="M629.188 502.933L341 300.001" stroke="#E4C679" stroke-opacity="0.52" stroke-width="1.25" stroke-linecap="round"/>
<path id="Vector_2" d="M628.035 503.366L973.557 385.999" stroke="#E4C679" stroke-opacity="0.52" stroke-width="1.25" stroke-linecap="round"/>
<path id="Vector_3" d="M628.035 503.366L1203 465.999" stroke="#E4C679" stroke-opacity="0.52" stroke-width="1.25" stroke-linecap="round" stroke-dasharray="5 5"/>
<path id="Vector_4" d="M629 502.387L331 554.503" stroke="#B0BCFD" stroke-opacity="0.44" stroke-width="1.1" stroke-linecap="round"/>
<path id="Vector_5" d="M629 503.141L932.308 184.272" stroke="#B0BCFD" stroke-opacity="0.44" stroke-width="1.1" stroke-linecap="round"/>
<path id="Vector_6" d="M629 502.999L720 693.998" stroke="#B0EBF2" stroke-opacity="0.48" stroke-width="1.15" stroke-linecap="round"/>
</g>
<g id="Entity / &#236;&#130;&#188;&#236;&#132;&#177;&#236;&#160;&#132;&#236;&#158;&#144; / sticker" opacity="0.6" filter="url(#filter0_df_0_19)">
</g>
<g id="Entity / &#236;&#130;&#188;&#236;&#132;&#177;&#236;&#160;&#132;&#236;&#158;&#144; / glow" filter="url(#filter1_f_0_19)">
<circle cx="941.5" cy="182.5" r="32.5" fill="#5786FF" fill-opacity="0.085"/>
</g>
<g id="Entity / &#236;&#130;&#188;&#236;&#132;&#177;&#236;&#160;&#132;&#236;&#158;&#144; / sticker_2" filter="url(#filter2_d_0_19)">
</g>
<path id="Vector_7" d="M936.598 154.409C939.051 153.402 943.672 166.277 946.111 167.922C948.55 169.567 960.602 166.165 962.629 168.419C964.657 170.674 955.128 178.883 953.483 181.322C951.838 183.76 960.345 194.82 958.7 197.259C957.055 199.698 945.571 192.395 943.529 192.792C941.487 193.189 933.887 203.142 931.448 201.497C929.009 199.852 932.03 188.14 930.612 186.297C929.194 184.454 917.795 180.313 918.83 177.463C919.865 174.613 931.705 172.841 933.35 170.403C934.995 167.964 934.145 155.416 936.598 154.409Z" fill="url(#paint0_linear_0_19)" stroke="#D8FFEF" stroke-opacity="0.22" stroke-width="0.468"/>
<path id="Vector_8" d="M625.948 453.537C630.99 451.1 641.104 476.456 644.579 481.426C647.981 485.358 674.883 482.434 677.321 487.476C679.758 492.519 658.987 508.567 656.165 512.934C653.343 517.302 666.641 543.478 661.671 546.953C656.702 550.428 635.684 533.132 631.534 533.422C627.384 533.712 608.833 551.69 603.428 548.941C598.023 546.191 608.732 520.421 606.366 516.416C604.001 512.412 580.161 499.483 582.911 494.078C585.661 488.673 612.78 488.862 616.567 483.384C620.354 477.907 620.833 454.938 625.948 453.537Z" fill="url(#paint1_linear_0_19)" stroke="#FFF6D8" stroke-opacity="0.22" stroke-width="0.936"/>
<foreignObject x="1191.25" y="433.881" width="58.4457" height="62.0224"><div xmlns="http://www.w3.org/1999/xhtml" style="backdrop-filter:blur(2px);clip-path:url(#bgblur_1_0_19_clip_path);height:100%;width:100%"></div></foreignObject><g id="Vector_9" opacity="0.6" filter="url(#filter3_f_0_19)" data-figma-bg-blur-radius="4">
<path d="M1225.19 438.23C1227.85 438.903 1227.01 453.399 1228.06 455.93C1229.12 458.461 1244.41 460.637 1245.33 463.699C1246.25 466.761 1232.14 471.107 1229.48 472.695C1226.81 474.283 1230.22 489.856 1227.55 491.444C1224.89 493.032 1216.28 480.103 1214.29 479.032C1212.3 477.962 1199.11 485.37 1197.52 482.705C1195.93 480.039 1205.54 468.896 1205.02 466.5C1204.49 464.104 1193.62 453.429 1195.89 451.174C1198.16 448.92 1212.64 454.286 1214.77 452.563C1216.91 450.841 1222.53 437.556 1225.19 438.23Z" fill="url(#paint2_linear_0_19)"/>
<path d="M1225.19 438.23C1227.85 438.903 1227.01 453.399 1228.06 455.93C1229.12 458.461 1244.41 460.637 1245.33 463.699C1246.25 466.761 1232.14 471.107 1229.48 472.695C1226.81 474.283 1230.22 489.856 1227.55 491.444C1224.89 493.032 1216.28 480.103 1214.29 479.032C1212.3 477.962 1199.11 485.37 1197.52 482.705C1195.93 480.039 1205.54 468.896 1205.02 466.5C1204.49 464.104 1193.62 453.429 1195.89 451.174C1198.16 448.92 1212.64 454.286 1214.77 452.563C1216.91 450.841 1222.53 437.556 1225.19 438.23Z" stroke="#FFF6D8" stroke-opacity="0.22" stroke-width="0.648"/>
</g>
<rect id="Backdrop / warm dusk tint" y="-5" width="1440" height="900" fill="url(#paint3_linear_0_19)"/>
<g id="Entity / &#236;&#130;&#188;&#236;&#132;&#177;&#236;&#160;&#132;&#236;&#158;&#144; / glow_2" opacity="0.9" filter="url(#filter4_f_0_19)">
<circle cx="107.5" cy="268.5" r="23.5" fill="#5786FF" fill-opacity="0.085"/>
</g>
<path id="Vector_10" opacity="0.9" d="M109.501 249.394C111.415 249.283 111.544 259.173 112.824 260.872C114.104 262.57 123.145 263.082 124.001 265.1C124.856 267.119 116.409 270.488 114.71 271.768C113.011 273.048 116.224 282.612 114.525 283.892C112.826 285.172 106.694 277.476 105.204 277.267C103.715 277.057 96.1756 282.073 94.8955 280.374C93.6155 278.676 98.4378 271.38 97.9024 269.786C97.3671 268.192 90.5482 262.677 91.9269 260.972C93.3055 259.268 101.817 260.844 103.516 259.563C105.214 258.283 107.587 249.504 109.501 249.394Z" fill="url(#paint4_linear_0_19)" stroke="#D8FFEF" stroke-opacity="0.22" stroke-width="0.468"/>
<g id="Statement / &#236;&#151;&#176;&#235;&#130;&#180; &#236;&#150;&#145;&#236;&#130;&#176; &#235;&#172;&#188;&#235;&#159;&#137; &#235;&#145;&#144; &#235;&#176;&#176; / sticker" filter="url(#filter5_d_0_19)">
</g>
<g id="Statement / &#236;&#151;&#176;&#235;&#130;&#180; &#236;&#150;&#145;&#236;&#130;&#176; &#235;&#172;&#188;&#235;&#159;&#137; &#235;&#145;&#144; &#235;&#176;&#176; / glow" opacity="0.9" filter="url(#filter6_f_0_19)">
<ellipse cx="177" cy="150.5" rx="28" ry="28.5" fill="#B0EBF2" fill-opacity="0.095"/>
</g>
<g id="Statement / &#236;&#151;&#176;&#235;&#130;&#180; &#236;&#150;&#145;&#236;&#130;&#176; &#235;&#172;&#188;&#235;&#159;&#137; &#235;&#145;&#144; &#235;&#176;&#176; / sticker_2" filter="url(#filter7_d_0_19)">
</g>
<path id="Vector_11" opacity="0.9" d="M178.798 124.817C180.925 124.928 182.473 136.103 183.661 137.872C184.848 139.641 196.83 138.989 197.995 141.184C199.16 143.378 189.06 148.823 187.269 150.436C185.478 152.049 190.43 163.402 188.639 165.015C186.847 166.628 178.335 158.075 176.655 157.56C174.975 157.045 166.041 164.684 164.428 162.893C162.815 161.102 168.457 151.157 167.695 149.41C166.933 147.663 157.033 141.171 158.421 139.11C159.809 137.049 171.657 138.95 173.022 137.315C174.388 135.68 176.67 124.705 178.798 124.817Z" fill="url(#paint5_linear_0_19)" stroke="#FFF6D8" stroke-opacity="0.22" stroke-width="0.522"/>
<g id="Event / top-left / &#236;&#151;&#148;&#235;&#185;&#132;&#235;&#148;&#148;&#236;&#149;&#132; HBM4 &#236;&#177;&#132;&#237;&#131;&#157; / glow" opacity="0.9" filter="url(#filter8_f_0_19)">
<circle cx="206.5" cy="328.5" r="28.5" fill="#FFC757" fill-opacity="0.11"/>
</g>
<path id="Vector_12" d="M208.115 305.684C210.506 305.419 211.317 317.802 213.032 319.846C214.748 321.89 226.108 321.937 227.312 324.41C228.517 326.883 218.155 331.659 216.11 333.374C214.066 335.089 218.719 346.861 216.675 348.576C214.63 350.292 206.442 341.052 204.562 340.887C202.682 340.723 193.566 347.502 191.851 345.457C190.135 343.413 195.698 333.956 194.923 331.994C194.147 330.032 185.242 323.571 186.857 321.344C188.473 319.118 199.24 320.534 201.284 318.818C203.328 317.103 205.725 305.948 208.115 305.684Z" fill="url(#paint6_linear_0_19)" stroke="#FFF6D8" stroke-opacity="0.22" stroke-width="0.648"/>
<g id="Entity / &#236;&#130;&#188;&#236;&#132;&#177;&#236;&#160;&#132;&#236;&#158;&#144; / glow_3" opacity="0.9" filter="url(#filter9_f_0_19)">
<circle cx="1358.5" cy="589.5" r="23.5" fill="#5786FF" fill-opacity="0.085"/>
</g>
<g id="Statement / &#236;&#151;&#176;&#235;&#130;&#180; &#236;&#150;&#145;&#236;&#130;&#176; &#235;&#172;&#188;&#235;&#159;&#137; &#235;&#145;&#144; &#235;&#176;&#176; / glow_2" opacity="0.9" filter="url(#filter10_f_0_19)">
<ellipse cx="1067" cy="565.5" rx="28" ry="28.5" fill="#B0EBF2" fill-opacity="0.095"/>
</g>
<path id="Vector_13" opacity="0.9" d="M1068.8 539.817C1070.93 539.928 1072.47 551.103 1073.66 552.872C1074.85 554.641 1086.83 553.989 1087.99 556.184C1089.16 558.378 1079.06 563.823 1077.27 565.436C1075.48 567.049 1080.43 578.402 1078.64 580.015C1076.85 581.628 1068.33 573.075 1066.66 572.56C1064.98 572.045 1056.04 579.684 1054.43 577.893C1052.82 576.102 1058.46 566.157 1057.69 564.41C1056.93 562.663 1047.03 556.171 1048.42 554.11C1049.81 552.049 1061.66 553.95 1063.02 552.315C1064.39 550.68 1066.67 539.705 1068.8 539.817Z" fill="url(#paint7_linear_0_19)" stroke="#FFF6D8" stroke-opacity="0.22" stroke-width="0.522"/>
<g id="Event / top-left / &#236;&#151;&#148;&#235;&#185;&#132;&#235;&#148;&#148;&#236;&#149;&#132; HBM4 &#236;&#177;&#132;&#237;&#131;&#157; / glow_2" opacity="0.9" filter="url(#filter11_f_0_19)">
<circle cx="849.5" cy="682.5" r="18.5" fill="#FFC757" fill-opacity="0.11"/>
</g>
<path id="Vector_14" opacity="0.9" d="M850.549 667.689C852.101 667.518 852.627 675.556 853.74 676.883C854.854 678.209 862.228 678.24 863.01 679.845C863.791 681.45 857.065 684.55 855.738 685.664C854.411 686.777 857.431 694.419 856.105 695.532C854.778 696.645 849.462 690.648 848.242 690.541C847.022 690.434 841.104 694.834 839.991 693.507C838.877 692.181 842.488 686.042 841.985 684.768C841.481 683.494 835.701 679.3 836.749 677.855C837.798 676.41 844.787 677.329 846.114 676.215C847.441 675.102 848.997 667.861 850.549 667.689Z" fill="url(#paint8_linear_0_19)" stroke="#FFF6D8" stroke-opacity="0.22" stroke-width="0.648"/>
<g id="Entity / &#236;&#130;&#188;&#236;&#132;&#177;&#236;&#160;&#132;&#236;&#158;&#144; / glow_4" opacity="0.9" filter="url(#filter12_f_0_19)">
<circle cx="508.5" cy="771.5" r="23.5" fill="#5786FF" fill-opacity="0.085"/>
</g>
<path id="Vector_15" opacity="0.9" d="M510.501 752.394C512.415 752.283 512.544 762.173 513.824 763.872C515.104 765.571 524.145 766.082 525 768.1C525.856 770.119 517.409 773.488 515.71 774.768C514.011 776.048 517.224 785.613 515.525 786.893C513.826 788.173 507.694 780.476 506.204 780.267C504.715 780.058 497.175 785.073 495.895 783.374C494.615 781.676 499.438 774.38 498.902 772.786C498.367 771.192 491.548 765.677 492.927 763.973C494.305 762.268 502.817 763.844 504.516 762.564C506.214 761.284 508.587 752.504 510.501 752.394Z" fill="url(#paint9_linear_0_19)" stroke="#D8FFEF" stroke-opacity="0.22" stroke-width="0.468"/>
<g id="Statement / &#236;&#151;&#176;&#235;&#130;&#180; &#236;&#150;&#145;&#236;&#130;&#176; &#235;&#172;&#188;&#235;&#159;&#137; &#235;&#145;&#144; &#235;&#176;&#176; / glow_3" opacity="0.9" filter="url(#filter13_f_0_19)">
<ellipse cx="896" cy="812.5" rx="28" ry="28.5" fill="#B0EBF2" fill-opacity="0.095"/>
</g>
<path id="Vector_16" opacity="0.9" d="M897.798 786.817C899.925 786.928 901.473 798.103 902.661 799.872C903.848 801.641 915.83 800.989 916.995 803.184C918.16 805.378 908.06 810.823 906.269 812.436C904.478 814.049 909.43 825.402 907.639 827.015C905.847 828.628 897.335 820.075 895.655 819.56C893.975 819.045 885.041 826.684 883.428 824.893C881.815 823.102 887.457 813.157 886.695 811.41C885.933 809.663 876.033 803.171 877.421 801.11C878.809 799.049 890.657 800.95 892.022 799.315C893.388 797.68 895.67 786.705 897.798 786.817Z" fill="url(#paint10_linear_0_19)" stroke="#FFF6D8" stroke-opacity="0.22" stroke-width="0.522"/>
<g id="Statement / &#236;&#151;&#176;&#235;&#130;&#180; &#236;&#150;&#145;&#236;&#130;&#176; &#235;&#172;&#188;&#235;&#159;&#137; &#235;&#145;&#144; &#235;&#176;&#176; / glow_4" opacity="0.9" filter="url(#filter14_f_0_19)">
<ellipse cx="568" cy="712.5" rx="28" ry="28.5" fill="#B0EBF2" fill-opacity="0.095"/>
</g>
<path id="Vector_17" opacity="0.9" d="M569.798 686.817C571.925 686.928 573.473 698.103 574.661 699.872C575.848 701.641 587.83 700.989 588.995 703.184C590.16 705.378 580.06 710.823 578.269 712.436C576.478 714.049 581.43 725.402 579.639 727.015C577.847 728.628 569.335 720.075 567.655 719.56C565.975 719.045 557.041 726.684 555.428 724.893C553.815 723.102 559.457 713.157 558.695 711.41C557.933 709.663 548.033 703.171 549.421 701.11C550.809 699.049 562.657 700.95 564.022 699.315C565.388 697.68 567.67 686.705 569.798 686.817Z" fill="url(#paint11_linear_0_19)" stroke="#FFF6D8" stroke-opacity="0.22" stroke-width="0.522"/>
<g id="Event / top-left / &#236;&#151;&#148;&#235;&#185;&#132;&#235;&#148;&#148;&#236;&#149;&#132; HBM4 &#236;&#177;&#132;&#237;&#131;&#157; / glow_3" opacity="0.9" filter="url(#filter15_f_0_19)">
<circle cx="561.5" cy="847.5" r="28.5" fill="#FFC757" fill-opacity="0.11"/>
</g>
<path id="Vector_18" opacity="0.9" d="M563.115 824.684C565.506 824.419 566.317 836.802 568.032 838.846C569.748 840.89 581.108 840.937 582.312 843.41C583.517 845.883 573.155 850.659 571.11 852.374C569.066 854.089 573.719 865.861 571.675 867.576C569.63 869.292 561.442 860.052 559.562 859.887C557.682 859.723 548.566 866.502 546.851 864.457C545.135 862.413 550.698 852.956 549.923 850.994C549.147 849.032 540.242 842.571 541.857 840.344C543.473 838.118 554.24 839.534 556.284 837.818C558.328 836.103 560.725 824.948 563.115 824.684Z" fill="url(#paint12_linear_0_19)" stroke="#FFF6D8" stroke-opacity="0.22" stroke-width="0.648"/>
<g id="Entity / &#236;&#130;&#188;&#236;&#132;&#177;&#236;&#160;&#132;&#236;&#158;&#144; / glow_5" opacity="0.9" filter="url(#filter16_f_0_19)">
<circle cx="927.5" cy="292.5" r="23.5" fill="#5786FF" fill-opacity="0.085"/>
</g>
<path id="Vector_19" opacity="0.9" d="M929.501 273.394C931.415 273.283 931.544 283.173 932.824 284.872C934.104 286.571 943.145 287.082 944 289.1C944.856 291.119 936.409 294.488 934.71 295.768C933.011 297.048 936.224 306.613 934.525 307.893C932.826 309.173 926.694 301.476 925.204 301.267C923.715 301.058 916.175 306.073 914.895 304.374C913.615 302.676 918.438 295.38 917.902 293.786C917.367 292.192 910.548 286.677 911.927 284.973C913.305 283.268 921.817 284.844 923.516 283.564C925.214 282.284 927.587 273.504 929.501 273.394Z" fill="url(#paint13_linear_0_19)" stroke="#D8FFEF" stroke-opacity="0.22" stroke-width="0.468"/>
<g id="Statement / &#236;&#151;&#176;&#235;&#130;&#180; &#236;&#150;&#145;&#236;&#130;&#176; &#235;&#172;&#188;&#235;&#159;&#137; &#235;&#145;&#144; &#235;&#176;&#176; / glow_5" opacity="0.9" filter="url(#filter17_f_0_19)">
<ellipse cx="1067" cy="242.5" rx="28" ry="28.5" fill="#B0EBF2" fill-opacity="0.095"/>
</g>
<path id="Vector_20" opacity="0.9" d="M1068.8 216.817C1070.93 216.928 1072.47 228.103 1073.66 229.872C1074.85 231.641 1086.83 230.989 1087.99 233.184C1089.16 235.378 1079.06 240.823 1077.27 242.436C1075.48 244.049 1080.43 255.402 1078.64 257.015C1076.85 258.628 1068.33 250.075 1066.66 249.56C1064.98 249.045 1056.04 256.684 1054.43 254.893C1052.82 253.102 1058.46 243.157 1057.69 241.41C1056.93 239.663 1047.03 233.171 1048.42 231.11C1049.81 229.049 1061.66 230.95 1063.02 229.315C1064.39 227.68 1066.67 216.705 1068.8 216.817Z" fill="url(#paint14_linear_0_19)" stroke="#FFF6D8" stroke-opacity="0.22" stroke-width="0.522"/>
<g id="Event / top-left / &#236;&#151;&#148;&#235;&#185;&#132;&#235;&#148;&#148;&#236;&#149;&#132; HBM4 &#236;&#177;&#132;&#237;&#131;&#157; / glow_4" opacity="0.9" filter="url(#filter18_f_0_19)">
<circle cx="1263" cy="373" r="22" fill="#FFC757" fill-opacity="0.11"/>
</g>
<path id="Vector_21" opacity="0.9" d="M1264.25 355.387C1266.09 355.183 1266.72 364.742 1268.04 366.32C1269.37 367.898 1278.14 367.934 1279.07 369.843C1280 371.752 1272 375.438 1270.42 376.763C1268.84 378.087 1272.43 387.173 1270.85 388.498C1269.28 389.822 1262.96 382.689 1261.5 382.562C1260.05 382.435 1253.02 387.668 1251.69 386.09C1250.37 384.512 1254.66 377.212 1254.06 375.697C1253.46 374.183 1246.59 369.195 1247.84 367.476C1249.08 365.758 1257.4 366.85 1258.97 365.526C1260.55 364.202 1262.4 355.591 1264.25 355.387Z" fill="url(#paint15_linear_0_19)" stroke="#FFF6D8" stroke-opacity="0.22" stroke-width="0.648"/>
<g id="Statement / &#236;&#151;&#176;&#235;&#130;&#180; &#236;&#150;&#145;&#236;&#130;&#176; &#235;&#172;&#188;&#235;&#159;&#137; &#235;&#145;&#144; &#235;&#176;&#176; / glow_6" opacity="0.9" filter="url(#filter19_f_0_19)">
<ellipse cx="121" cy="665.5" rx="28" ry="28.5" fill="#B0EBF2" fill-opacity="0.095"/>
</g>
<path id="Vector_22" opacity="0.9" d="M122.798 639.817C124.925 639.928 126.473 651.103 127.661 652.872C128.848 654.641 140.83 653.989 141.995 656.184C143.16 658.378 133.06 663.823 131.269 665.436C129.478 667.049 134.43 678.402 132.639 680.015C130.847 681.628 122.335 673.075 120.655 672.56C118.975 672.045 110.041 679.684 108.428 677.893C106.815 676.102 112.457 666.157 111.695 664.41C110.933 662.663 101.033 656.171 102.421 654.11C103.809 652.049 115.657 653.95 117.022 652.315C118.388 650.68 120.67 639.705 122.798 639.817Z" fill="url(#paint16_linear_0_19)" stroke="#FFF6D8" stroke-opacity="0.22" stroke-width="0.522"/>
<g id="Event / top-left / &#236;&#151;&#148;&#235;&#185;&#132;&#235;&#148;&#148;&#236;&#149;&#132; HBM4 &#236;&#177;&#132;&#237;&#131;&#157; / glow_5" opacity="0.9" filter="url(#filter20_f_0_19)">
<circle cx="261.5" cy="693.5" r="28.5" fill="#FFC757" fill-opacity="0.11"/>
</g>
<g id="Event / top-left / &#236;&#151;&#148;&#235;&#185;&#132;&#235;&#148;&#148;&#236;&#149;&#132; HBM4 &#236;&#177;&#132;&#237;&#131;&#157; / glow_6" opacity="0.9" filter="url(#filter21_f_0_19)">
<circle cx="155.5" cy="516.5" r="22.5" fill="#FFC757" fill-opacity="0.11"/>
</g>
<path id="Vector_23" opacity="0.9" d="M263.115 670.684C265.506 670.419 266.317 682.802 268.032 684.846C269.748 686.89 281.108 686.937 282.312 689.41C283.517 691.883 273.155 696.659 271.11 698.374C269.066 700.089 273.719 711.861 271.675 713.576C269.63 715.292 261.442 706.052 259.562 705.887C257.682 705.723 248.566 712.502 246.851 710.457C245.135 708.413 250.698 698.956 249.923 696.994C249.147 695.032 240.242 688.571 241.857 686.344C243.473 684.118 254.24 685.534 256.284 683.818C258.328 682.103 260.725 670.948 263.115 670.684Z" fill="url(#paint17_linear_0_19)" stroke="#FFF6D8" stroke-opacity="0.22" stroke-width="0.648"/>
<g id="Event / top-left / &#236;&#151;&#148;&#235;&#185;&#132;&#235;&#148;&#148;&#236;&#149;&#132; HBM4 &#236;&#177;&#132;&#237;&#131;&#157; / glow_7" opacity="0.9" filter="url(#filter22_f_0_19)">
<circle cx="169.5" cy="775.5" r="20.5" fill="#FFC757" fill-opacity="0.11"/>
</g>
<path id="Vector_24" opacity="0.9" d="M170.662 759.088C172.382 758.898 172.965 767.805 174.199 769.275C175.432 770.746 183.604 770.779 184.47 772.558C185.336 774.337 177.883 777.772 176.413 779.006C174.942 780.24 178.289 788.707 176.819 789.941C175.348 791.175 169.458 784.528 168.106 784.41C166.754 784.292 160.196 789.168 158.963 787.698C157.729 786.227 161.73 779.424 161.172 778.013C160.615 776.602 154.209 771.954 155.371 770.353C156.533 768.752 164.278 769.77 165.748 768.536C167.219 767.302 168.942 759.278 170.662 759.088Z" fill="url(#paint18_linear_0_19)" stroke="#FFF6D8" stroke-opacity="0.22" stroke-width="0.648"/>
<path id="Vector_25" opacity="0.9" d="M158.708 500.12C160.596 499.912 161.236 509.687 162.59 511.301C163.944 512.915 172.913 512.952 173.864 514.904C174.814 516.857 166.634 520.627 165.02 521.981C163.406 523.335 167.079 532.629 165.465 533.983C163.851 535.337 157.387 528.043 155.903 527.913C154.419 527.783 147.222 533.135 145.867 531.521C144.513 529.907 148.905 522.441 148.293 520.892C147.68 519.343 140.65 514.242 141.925 512.484C143.201 510.726 151.701 511.844 153.315 510.49C154.929 509.136 156.821 500.329 158.708 500.12Z" fill="url(#paint19_linear_0_19)" stroke="#FFF6D8" stroke-opacity="0.22" stroke-width="0.648"/>
<g id="Statement / &#236;&#151;&#176;&#235;&#130;&#180; &#236;&#150;&#145;&#236;&#130;&#176; &#235;&#172;&#188;&#235;&#159;&#137; &#235;&#145;&#144; &#235;&#176;&#176; / glow_7" opacity="0.9" filter="url(#filter23_f_0_19)">
<ellipse cx="795.846" cy="223.567" rx="28" ry="28.5" transform="rotate(68.2524 795.846 223.567)" fill="#B0EBF2" fill-opacity="0.095"/>
</g>
<path id="Vector_26" opacity="0.9" d="M820.367 215.721C821.052 217.738 811.246 223.317 810.042 225.075C808.839 226.833 813.884 237.72 812.278 239.616C810.671 241.511 801.872 234.148 799.71 233.082C797.549 232.015 788.838 240.822 786.676 239.755C784.514 238.689 789.305 227.614 789.161 225.863C789.016 224.112 778.611 218.644 779.677 216.482C780.743 214.32 792.07 215.875 793.411 214.52C794.751 213.166 797.113 201.564 799.541 202.09C801.97 202.616 804.594 214.325 806.619 214.987C808.644 215.65 819.682 213.703 820.367 215.721Z" fill="url(#paint20_linear_0_19)" stroke="#FFF6D8" stroke-opacity="0.22" stroke-width="0.522"/>
<g id="Statement / &#236;&#151;&#176;&#235;&#130;&#180; &#236;&#150;&#145;&#236;&#130;&#176; &#235;&#172;&#188;&#235;&#159;&#137; &#235;&#145;&#144; &#235;&#176;&#176; / glow_8" opacity="0.9" filter="url(#filter24_f_0_19)">
<ellipse cx="1028.5" cy="117.292" rx="20.8978" ry="21.271" transform="rotate(68.2524 1028.5 117.292)" fill="#B0EBF2" fill-opacity="0.095"/>
</g>
<path id="Vector_27" opacity="0.9" d="M1046.8 111.436C1047.31 112.942 1039.99 117.105 1039.1 118.417C1038.2 119.73 1041.96 127.855 1040.76 129.27C1039.56 130.684 1033 125.189 1031.38 124.393C1029.77 123.597 1023.27 130.17 1021.66 129.374C1020.04 128.578 1023.62 120.312 1023.51 119.005C1023.4 117.698 1015.64 113.617 1016.43 112.004C1017.23 110.39 1025.68 111.551 1026.68 110.54C1027.68 109.529 1029.45 100.87 1031.26 101.262C1033.07 101.655 1035.03 110.394 1036.54 110.888C1038.05 111.383 1046.29 109.93 1046.8 111.436Z" fill="url(#paint21_linear_0_19)" stroke="#FFF6D8" stroke-opacity="0.22" stroke-width="0.522"/>
<g id="Event / top-left / &#236;&#151;&#148;&#235;&#185;&#132;&#235;&#148;&#148;&#236;&#149;&#132; HBM4 &#236;&#177;&#132;&#237;&#131;&#157; / glow_8" opacity="0.9" filter="url(#filter25_f_0_19)">
<circle cx="764.031" cy="134.031" r="28.5" transform="rotate(68.2524 764.031 134.031)" fill="#FFC757" fill-opacity="0.11"/>
</g>
<path id="Vector_28" opacity="0.9" d="M785.823 127.078C786.954 129.201 775.753 134.542 774.49 136.892C773.227 139.243 777.393 149.812 775.542 151.847C773.691 153.882 765.416 146.027 763.065 144.764C760.715 143.501 751.505 152.183 749.154 150.92C746.804 149.657 752.352 138.628 751.808 136.821C751.264 135.014 741.59 129.058 742.853 126.708C744.116 124.357 754.962 126.02 756.497 124.572C758.032 123.125 760.734 112.46 763.4 113.135C766.066 113.811 768.741 124.336 771.092 125.599C773.442 126.862 784.691 124.955 785.823 127.078Z" fill="url(#paint22_linear_0_19)" stroke="#FFF6D8" stroke-opacity="0.22" stroke-width="0.648"/>
</g>
<defs>
<filter id="filter0_df_0_19" x="168" y="379" width="78.7309" height="78.731" filterUnits="userSpaceOnUse" color-interpolation-filters="sRGB">
<feFlood flood-opacity="0" result="BackgroundImageFix"/>
<feColorMatrix in="SourceAlpha" type="matrix" values="0 0 0 0 0 0 0 0 0 0 0 0 0 0 0 0 0 0 127 0" result="hardAlpha"/>
<feOffset/>
<feGaussianBlur stdDeviation="5"/>
<feColorMatrix type="matrix" values="0 0 0 0 1 0 0 0 0 0.78 0 0 0 0 0.3 0 0 0 0.24 0"/>
<feBlend mode="screen" in2="BackgroundImageFix" result="effect1_dropShadow_0_19"/>
<feBlend mode="normal" in="SourceGraphic" in2="effect1_dropShadow_0_19" result="shape"/>
<feGaussianBlur stdDeviation="2" result="effect2_foregroundBlur_0_19"/>
</filter>
<filter id="filter1_f_0_19" x="887" y="128" width="109" height="109" filterUnits="userSpaceOnUse" color-interpolation-filters="sRGB">
<feFlood flood-opacity="0" result="BackgroundImageFix"/>
<feBlend mode="normal" in="SourceGraphic" in2="BackgroundImageFix" result="shape"/>
<feGaussianBlur stdDeviation="11" result="effect1_foregroundBlur_0_19"/>
</filter>
<filter id="filter2_d_0_19" x="1078.76" y="544" width="78.731" height="78.731" filterUnits="userSpaceOnUse" color-interpolation-filters="sRGB">
<feFlood flood-opacity="0" result="BackgroundImageFix"/>
<feColorMatrix in="SourceAlpha" type="matrix" values="0 0 0 0 0 0 0 0 0 0 0 0 0 0 0 0 0 0 127 0" result="hardAlpha"/>
<feOffset/>
<feGaussianBlur stdDeviation="5"/>
<feColorMatrix type="matrix" values="0 0 0 0 1 0 0 0 0 0.78 0 0 0 0 0.3 0 0 0 0.24 0"/>
<feBlend mode="screen" in2="BackgroundImageFix" result="effect1_dropShadow_0_19"/>
<feBlend mode="normal" in="SourceGraphic" in2="effect1_dropShadow_0_19" result="shape"/>
</filter>
<filter id="filter3_f_0_19" x="1191.25" y="433.881" width="58.4457" height="62.0224" filterUnits="userSpaceOnUse" color-interpolation-filters="sRGB">
<feFlood flood-opacity="0" result="BackgroundImageFix"/>
<feBlend mode="normal" in="SourceGraphic" in2="BackgroundImageFix" result="shape"/>
<feGaussianBlur stdDeviation="1" result="effect1_foregroundBlur_0_19"/>
</filter>
<clipPath id="bgblur_1_0_19_clip_path" transform="translate(-1191.25 -433.881)"><path d="M1225.19 438.23C1227.85 438.903 1227.01 453.399 1228.06 455.93C1229.12 458.461 1244.41 460.637 1245.33 463.699C1246.25 466.761 1232.14 471.107 1229.48 472.695C1226.81 474.283 1230.22 489.856 1227.55 491.444C1224.89 493.032 1216.28 480.103 1214.29 479.032C1212.3 477.962 1199.11 485.37 1197.52 482.705C1195.93 480.039 1205.54 468.896 1205.02 466.5C1204.49 464.104 1193.62 453.429 1195.89 451.174C1198.16 448.92 1212.64 454.286 1214.77 452.563C1216.91 450.841 1222.53 437.556 1225.19 438.23Z"/>
</clipPath><filter id="filter4_f_0_19" x="62" y="223" width="91" height="91" filterUnits="userSpaceOnUse" color-interpolation-filters="sRGB">
<feFlood flood-opacity="0" result="BackgroundImageFix"/>
<feBlend mode="normal" in="SourceGraphic" in2="BackgroundImageFix" result="shape"/>
<feGaussianBlur stdDeviation="11" result="effect1_foregroundBlur_0_19"/>
</filter>
<filter id="filter5_d_0_19" x="197" y="308" width="80.956" height="80.956" filterUnits="userSpaceOnUse" color-interpolation-filters="sRGB">
<feFlood flood-opacity="0" result="BackgroundImageFix"/>
<feColorMatrix in="SourceAlpha" type="matrix" values="0 0 0 0 0 0 0 0 0 0 0 0 0 0 0 0 0 0 127 0" result="hardAlpha"/>
<feOffset/>
<feGaussianBlur stdDeviation="5"/>
<feColorMatrix type="matrix" values="0 0 0 0 1 0 0 0 0 0.78 0 0 0 0 0.3 0 0 0 0.24 0"/>
<feBlend mode="screen" in2="BackgroundImageFix" result="effect1_dropShadow_0_19"/>
<feBlend mode="normal" in="SourceGraphic" in2="effect1_dropShadow_0_19" result="shape"/>
</filter>
<filter id="filter6_f_0_19" x="127" y="100" width="100" height="101" filterUnits="userSpaceOnUse" color-interpolation-filters="sRGB">
<feFlood flood-opacity="0" result="BackgroundImageFix"/>
<feBlend mode="normal" in="SourceGraphic" in2="BackgroundImageFix" result="shape"/>
<feGaussianBlur stdDeviation="11" result="effect1_foregroundBlur_0_19"/>
</filter>
<filter id="filter7_d_0_19" x="188.965" y="264" width="80.956" height="80.956" filterUnits="userSpaceOnUse" color-interpolation-filters="sRGB">
<feFlood flood-opacity="0" result="BackgroundImageFix"/>
<feColorMatrix in="SourceAlpha" type="matrix" values="0 0 0 0 0 0 0 0 0 0 0 0 0 0 0 0 0 0 127 0" result="hardAlpha"/>
<feOffset/>
<feGaussianBlur stdDeviation="5"/>
<feColorMatrix type="matrix" values="0 0 0 0 1 0 0 0 0 0.78 0 0 0 0 0.3 0 0 0 0.24 0"/>
<feBlend mode="screen" in2="BackgroundImageFix" result="effect1_dropShadow_0_19"/>
<feBlend mode="normal" in="SourceGraphic" in2="effect1_dropShadow_0_19" result="shape"/>
</filter>
<filter id="filter8_f_0_19" x="156" y="278" width="101" height="101" filterUnits="userSpaceOnUse" color-interpolation-filters="sRGB">
<feFlood flood-opacity="0" result="BackgroundImageFix"/>
<feBlend mode="normal" in="SourceGraphic" in2="BackgroundImageFix" result="shape"/>
<feGaussianBlur stdDeviation="11" result="effect1_foregroundBlur_0_19"/>
</filter>
<filter id="filter9_f_0_19" x="1313" y="544" width="91" height="91" filterUnits="userSpaceOnUse" color-interpolation-filters="sRGB">
<feFlood flood-opacity="0" result="BackgroundImageFix"/>
<feBlend mode="normal" in="SourceGraphic" in2="BackgroundImageFix" result="shape"/>
<feGaussianBlur stdDeviation="11" result="effect1_foregroundBlur_0_19"/>
</filter>
<filter id="filter10_f_0_19" x="1017" y="515" width="100" height="101" filterUnits="userSpaceOnUse" color-interpolation-filters="sRGB">
<feFlood flood-opacity="0" result="BackgroundImageFix"/>
<feBlend mode="normal" in="SourceGraphic" in2="BackgroundImageFix" result="shape"/>
<feGaussianBlur stdDeviation="11" result="effect1_foregroundBlur_0_19"/>
</filter>
<filter id="filter11_f_0_19" x="809" y="642" width="81" height="81" filterUnits="userSpaceOnUse" color-interpolation-filters="sRGB">
<feFlood flood-opacity="0" result="BackgroundImageFix"/>
<feBlend mode="normal" in="SourceGraphic" in2="BackgroundImageFix" result="shape"/>
<feGaussianBlur stdDeviation="11" result="effect1_foregroundBlur_0_19"/>
</filter>
<filter id="filter12_f_0_19" x="463" y="726" width="91" height="91" filterUnits="userSpaceOnUse" color-interpolation-filters="sRGB">
<feFlood flood-opacity="0" result="BackgroundImageFix"/>
<feBlend mode="normal" in="SourceGraphic" in2="BackgroundImageFix" result="shape"/>
<feGaussianBlur stdDeviation="11" result="effect1_foregroundBlur_0_19"/>
</filter>
<filter id="filter13_f_0_19" x="846" y="762" width="100" height="101" filterUnits="userSpaceOnUse" color-interpolation-filters="sRGB">
<feFlood flood-opacity="0" result="BackgroundImageFix"/>
<feBlend mode="normal" in="SourceGraphic" in2="BackgroundImageFix" result="shape"/>
<feGaussianBlur stdDeviation="11" result="effect1_foregroundBlur_0_19"/>
</filter>
<filter id="filter14_f_0_19" x="518" y="662" width="100" height="101" filterUnits="userSpaceOnUse" color-interpolation-filters="sRGB">
<feFlood flood-opacity="0" result="BackgroundImageFix"/>
<feBlend mode="normal" in="SourceGraphic" in2="BackgroundImageFix" result="shape"/>
<feGaussianBlur stdDeviation="11" result="effect1_foregroundBlur_0_19"/>
</filter>
<filter id="filter15_f_0_19" x="511" y="797" width="101" height="101" filterUnits="userSpaceOnUse" color-interpolation-filters="sRGB">
<feFlood flood-opacity="0" result="BackgroundImageFix"/>
<feBlend mode="normal" in="SourceGraphic" in2="BackgroundImageFix" result="shape"/>
<feGaussianBlur stdDeviation="11" result="effect1_foregroundBlur_0_19"/>
</filter>
<filter id="filter16_f_0_19" x="882" y="247" width="91" height="91" filterUnits="userSpaceOnUse" color-interpolation-filters="sRGB">
<feFlood flood-opacity="0" result="BackgroundImageFix"/>
<feBlend mode="normal" in="SourceGraphic" in2="BackgroundImageFix" result="shape"/>
<feGaussianBlur stdDeviation="11" result="effect1_foregroundBlur_0_19"/>
</filter>
<filter id="filter17_f_0_19" x="1017" y="192" width="100" height="101" filterUnits="userSpaceOnUse" color-interpolation-filters="sRGB">
<feFlood flood-opacity="0" result="BackgroundImageFix"/>
<feBlend mode="normal" in="SourceGraphic" in2="BackgroundImageFix" result="shape"/>
<feGaussianBlur stdDeviation="11" result="effect1_foregroundBlur_0_19"/>
</filter>
<filter id="filter18_f_0_19" x="1219" y="329" width="88" height="88" filterUnits="userSpaceOnUse" color-interpolation-filters="sRGB">
<feFlood flood-opacity="0" result="BackgroundImageFix"/>
<feBlend mode="normal" in="SourceGraphic" in2="BackgroundImageFix" result="shape"/>
<feGaussianBlur stdDeviation="11" result="effect1_foregroundBlur_0_19"/>
</filter>
<filter id="filter19_f_0_19" x="71" y="615" width="100" height="101" filterUnits="userSpaceOnUse" color-interpolation-filters="sRGB">
<feFlood flood-opacity="0" result="BackgroundImageFix"/>
<feBlend mode="normal" in="SourceGraphic" in2="BackgroundImageFix" result="shape"/>
<feGaussianBlur stdDeviation="11" result="effect1_foregroundBlur_0_19"/>
</filter>
<filter id="filter20_f_0_19" x="211" y="643" width="101" height="101" filterUnits="userSpaceOnUse" color-interpolation-filters="sRGB">
<feFlood flood-opacity="0" result="BackgroundImageFix"/>
<feBlend mode="normal" in="SourceGraphic" in2="BackgroundImageFix" result="shape"/>
<feGaussianBlur stdDeviation="11" result="effect1_foregroundBlur_0_19"/>
</filter>
<filter id="filter21_f_0_19" x="111" y="472" width="89" height="89" filterUnits="userSpaceOnUse" color-interpolation-filters="sRGB">
<feFlood flood-opacity="0" result="BackgroundImageFix"/>
<feBlend mode="normal" in="SourceGraphic" in2="BackgroundImageFix" result="shape"/>
<feGaussianBlur stdDeviation="11" result="effect1_foregroundBlur_0_19"/>
</filter>
<filter id="filter22_f_0_19" x="127" y="733" width="85" height="85" filterUnits="userSpaceOnUse" color-interpolation-filters="sRGB">
<feFlood flood-opacity="0" result="BackgroundImageFix"/>
<feBlend mode="normal" in="SourceGraphic" in2="BackgroundImageFix" result="shape"/>
<feGaussianBlur stdDeviation="11" result="effect1_foregroundBlur_0_19"/>
</filter>
<filter id="filter23_f_0_19" x="745.406" y="173.49" width="100.879" height="100.153" filterUnits="userSpaceOnUse" color-interpolation-filters="sRGB">
<feFlood flood-opacity="0" result="BackgroundImageFix"/>
<feBlend mode="normal" in="SourceGraphic" in2="BackgroundImageFix" result="shape"/>
<feGaussianBlur stdDeviation="11" result="effect1_foregroundBlur_0_19"/>
</filter>
<filter id="filter24_f_0_19" x="985.274" y="74.3367" width="86.4517" height="85.91" filterUnits="userSpaceOnUse" color-interpolation-filters="sRGB">
<feFlood flood-opacity="0" result="BackgroundImageFix"/>
<feBlend mode="normal" in="SourceGraphic" in2="BackgroundImageFix" result="shape"/>
<feGaussianBlur stdDeviation="11" result="effect1_foregroundBlur_0_19"/>
</filter>
<filter id="filter25_f_0_19" x="713.524" y="83.5237" width="101.015" height="101.015" filterUnits="userSpaceOnUse" color-interpolation-filters="sRGB">
<feFlood flood-opacity="0" result="BackgroundImageFix"/>
<feBlend mode="normal" in="SourceGraphic" in2="BackgroundImageFix" result="shape"/>
<feGaussianBlur stdDeviation="11" result="effect1_foregroundBlur_0_19"/>
</filter>
<linearGradient id="paint0_linear_0_19" x1="915" y1="158.592" x2="969.301" y2="193.884" gradientUnits="userSpaceOnUse">
<stop stop-color="#D3E5FF"/>
<stop offset="0.716346" stop-color="#B0BCFD"/>
<stop offset="1" stop-color="#8D92FB"/>
</linearGradient>
<linearGradient id="paint1_linear_0_19" x1="580" y1="456.632" x2="682.54" y2="544.759" gradientUnits="userSpaceOnUse">
<stop stop-color="#FFF3C7"/>
<stop offset="1" stop-color="#EED082"/>
</linearGradient>
<linearGradient id="paint2_linear_0_19" x1="1200.6" y1="432" x2="1237.74" y2="494.323" gradientUnits="userSpaceOnUse">
<stop stop-color="#FFF3C7"/>
<stop offset="1" stop-color="#EED082"/>
</linearGradient>
<linearGradient id="paint3_linear_0_19" x1="0" y1="445" x2="1440" y2="445" gradientUnits="userSpaceOnUse">
<stop stop-color="#1A2130" stop-opacity="0.06"/>
<stop offset="0.5" stop-color="#0D0A0D" stop-opacity="0.04"/>
<stop offset="1" stop-color="#1C120B" stop-opacity="0.08"/>
</linearGradient>
<linearGradient id="paint4_linear_0_19" x1="93.7506" y1="247.169" x2="122.567" y2="284.081" gradientUnits="userSpaceOnUse">
<stop stop-color="#D3E5FF"/>
<stop offset="0.716346" stop-color="#B0BCFD"/>
<stop offset="1" stop-color="#8D92FB"/>
</linearGradient>
<linearGradient id="paint5_linear_0_19" x1="159.113" y1="123.785" x2="196.837" y2="165.67" gradientUnits="userSpaceOnUse">
<stop stop-color="#E0FFE4"/>
<stop offset="0.649038" stop-color="#B0EBF2"/>
<stop offset="1" stop-color="#80D7FF"/>
</linearGradient>
<linearGradient id="paint6_linear_0_19" x1="188.236" y1="303.931" x2="226.762" y2="348.284" gradientUnits="userSpaceOnUse">
<stop stop-color="#FFF3C7"/>
<stop offset="1" stop-color="#EED082"/>
</linearGradient>
<linearGradient id="paint7_linear_0_19" x1="1049.11" y1="538.785" x2="1086.84" y2="580.67" gradientUnits="userSpaceOnUse">
<stop stop-color="#E0FFE4"/>
<stop offset="0.649038" stop-color="#B0EBF2"/>
<stop offset="1" stop-color="#80D7FF"/>
</linearGradient>
<linearGradient id="paint8_linear_0_19" x1="837.644" y1="666.552" x2="862.653" y2="695.342" gradientUnits="userSpaceOnUse">
<stop stop-color="#FFF3C7"/>
<stop offset="1" stop-color="#EED082"/>
</linearGradient>
<linearGradient id="paint9_linear_0_19" x1="494.75" y1="750.169" x2="523.567" y2="787.081" gradientUnits="userSpaceOnUse">
<stop stop-color="#D3E5FF"/>
<stop offset="0.716346" stop-color="#B0BCFD"/>
<stop offset="1" stop-color="#8D92FB"/>
</linearGradient>
<linearGradient id="paint10_linear_0_19" x1="878.113" y1="785.785" x2="915.837" y2="827.67" gradientUnits="userSpaceOnUse">
<stop stop-color="#E0FFE4"/>
<stop offset="0.649038" stop-color="#B0EBF2"/>
<stop offset="1" stop-color="#80D7FF"/>
</linearGradient>
<linearGradient id="paint11_linear_0_19" x1="550.113" y1="685.785" x2="587.837" y2="727.67" gradientUnits="userSpaceOnUse">
<stop stop-color="#E0FFE4"/>
<stop offset="0.649038" stop-color="#B0EBF2"/>
<stop offset="1" stop-color="#80D7FF"/>
</linearGradient>
<linearGradient id="paint12_linear_0_19" x1="543.236" y1="822.931" x2="581.762" y2="867.284" gradientUnits="userSpaceOnUse">
<stop stop-color="#FFF3C7"/>
<stop offset="1" stop-color="#EED082"/>
</linearGradient>
<linearGradient id="paint13_linear_0_19" x1="913.75" y1="271.169" x2="942.567" y2="308.081" gradientUnits="userSpaceOnUse">
<stop stop-color="#D3E5FF"/>
<stop offset="0.716346" stop-color="#B0BCFD"/>
<stop offset="1" stop-color="#8D92FB"/>
</linearGradient>
<linearGradient id="paint14_linear_0_19" x1="1049.11" y1="215.785" x2="1086.84" y2="257.67" gradientUnits="userSpaceOnUse">
<stop stop-color="#E0FFE4"/>
<stop offset="0.649038" stop-color="#B0EBF2"/>
<stop offset="1" stop-color="#80D7FF"/>
</linearGradient>
<linearGradient id="paint15_linear_0_19" x1="1248.9" y1="354.035" x2="1278.64" y2="388.272" gradientUnits="userSpaceOnUse">
<stop stop-color="#FFF3C7"/>
<stop offset="1" stop-color="#EED082"/>
</linearGradient>
<linearGradient id="paint16_linear_0_19" x1="103.113" y1="638.785" x2="140.837" y2="680.67" gradientUnits="userSpaceOnUse">
<stop stop-color="#E0FFE4"/>
<stop offset="0.649038" stop-color="#B0EBF2"/>
<stop offset="1" stop-color="#80D7FF"/>
</linearGradient>
<linearGradient id="paint17_linear_0_19" x1="243.236" y1="668.931" x2="281.762" y2="713.284" gradientUnits="userSpaceOnUse">
<stop stop-color="#FFF3C7"/>
<stop offset="1" stop-color="#EED082"/>
</linearGradient>
<linearGradient id="paint18_linear_0_19" x1="156.363" y1="757.828" x2="184.075" y2="789.731" gradientUnits="userSpaceOnUse">
<stop stop-color="#FFF3C7"/>
<stop offset="1" stop-color="#EED082"/>
</linearGradient>
<linearGradient id="paint19_linear_0_19" x1="143.014" y1="498.737" x2="173.429" y2="533.752" gradientUnits="userSpaceOnUse">
<stop stop-color="#FFF3C7"/>
<stop offset="1" stop-color="#EED082"/>
</linearGradient>
<linearGradient id="paint20_linear_0_19" x1="814.032" y1="197.055" x2="789.105" y2="247.613" gradientUnits="userSpaceOnUse">
<stop stop-color="#E0FFE4"/>
<stop offset="0.649038" stop-color="#B0EBF2"/>
<stop offset="1" stop-color="#80D7FF"/>
</linearGradient>
<linearGradient id="paint21_linear_0_19" x1="1042.07" y1="97.5047" x2="1023.47" y2="135.238" gradientUnits="userSpaceOnUse">
<stop stop-color="#E0FFE4"/>
<stop offset="0.649038" stop-color="#B0EBF2"/>
<stop offset="1" stop-color="#80D7FF"/>
</linearGradient>
<linearGradient id="paint22_linear_0_19" x1="780.085" y1="107.964" x2="753.163" y2="160.182" gradientUnits="userSpaceOnUse">
<stop stop-color="#FFF3C7"/>
<stop offset="1" stop-color="#EED082"/>
</linearGradient>
<clipPath id="clip0_0_19">
<rect width="1440" height="900" fill="white"/>
</clipPath>
</defs>
</svg>
