<svg preserveAspectRatio="none" overflow="visible" style="display: block;" width="1152" height="764" viewBox="0 0 1152 764" fill="none" xmlns="http://www.w3.org/2000/svg">
<g id="Exploration background / Micro dot grid">
<circle id="Grid dot" cx="34.75" cy="34.75" r="0.75" fill="#B9C6D4" fill-opacity="0.038"/>
<circle id="Grid dot_2" cx="90.75" cy="34.75" r="0.75" fill="#B9C6D4" fill-opacity="0.038"/>
<circle id="Grid dot_3" cx="146.75" cy="34.75" r="0.75" fill="#B9C6D4" fill-opacity="0.038"/>
<circle id="Grid dot_4" cx="202.75" cy="34.75" r="0.75" fill="#B9C6D4" fill-opacity="0.038"/>
<circle id="Grid dot_5" cx="258.75" cy="34.75" r="0.75" fill="#B9C6D4" fill-opacity="0.038"/>
<circle id="Grid dot_6" cx="314.75" cy="34.75" r="0.75" fill="#B9C6D4" fill-opacity="0.038"/>
<circle id="Grid dot_7" cx="370.75" cy="34.75" r="0.75" fill="#B9C6D4" fill-opacity="0.038"/>
<circle id="Grid dot_8" cx="426.75" cy="34.75" r="0.75" fill="#B9C6D4" fill-opacity="0.038"/>
<circle id="Grid dot_9" cx="482.75" cy="34.75" r="0.75" fill="#B9C6D4" fill-opacity="0.038"/>
<circle id="Grid dot_10" cx="538.75" cy="34.75" r="0.75" fill="#B9C6D4" fill-opacity="0.038"/>
<circle id="Grid dot_11" cx="594.75" cy="34.75" r="0.75" fill="#B9C6D4" fill-opacity="0.038"/>
<circle id="Grid dot_12" cx="650.75" cy="34.75" r="0.75" fill="#B9C6D4" fill-opacity="0.038"/>
<circle id="Grid dot_13" cx="706.75" cy="34.75" r="0.75" fill="#B9C6D4" fill-opacity="0.038"/>
<circle id="Grid dot_14" cx="762.75" cy="34.75" r="0.75" fill="#B9C6D4" fill-opacity="0.038"/>
<circle id="Grid dot_15" cx="818.75" cy="34.75" r="0.75" fill="#B9C6D4" fill-opacity="0.038"/>
<circle id="Grid dot_16" cx="874.75" cy="34.75" r="0.75" fill="#B9C6D4" fill-opacity="0.038"/>
<circle id="Grid dot_17" cx="930.75" cy="34.75" r="0.75" fill="#B9C6D4" fill-opacity="0.038"/>
<circle id="Grid dot_18" cx="986.75" cy="34.75" r="0.75" fill="#B9C6D4" fill-opacity="0.038"/>
<circle id="Grid dot_19" cx="1042.75" cy="34.75" r="0.75" fill="#B9C6D4" fill-opacity="0.038"/>
<circle id="Grid dot_20" cx="1098.75" cy="34.75" r="0.75" fill="#B9C6D4" fill-opacity="0.038"/>
<circle id="Grid dot_21" cx="34.75" cy="90.75" r="0.75" fill="#B9C6D4" fill-opacity="0.038"/>
<circle id="Grid dot_22" cx="90.75" cy="90.75" r="0.75" fill="#B9C6D4" fill-opacity="0.038"/>
<circle id="Grid dot_23" cx="146.75" cy="90.75" r="0.75" fill="#B9C6D4" fill-opacity="0.038"/>
<circle id="Grid dot_24" cx="202.75" cy="90.75" r="0.75" fill="#B9C6D4" fill-opacity="0.038"/>
<circle id="Grid dot_25" cx="258.75" cy="90.75" r="0.75" fill="#B9C6D4" fill-opacity="0.038"/>
<circle id="Grid dot_26" cx="314.75" cy="90.75" r="0.75" fill="#B9C6D4" fill-opacity="0.038"/>
<circle id="Grid dot_27" cx="370.75" cy="90.75" r="0.75" fill="#B9C6D4" fill-opacity="0.038"/>
<circle id="Grid dot_28" cx="426.75" cy="90.75" r="0.75" fill="#B9C6D4" fill-opacity="0.038"/>
<circle id="Grid dot_29" cx="482.75" cy="90.75" r="0.75" fill="#B9C6D4" fill-opacity="0.038"/>
<circle id="Grid dot_30" cx="538.75" cy="90.75" r="0.75" fill="#B9C6D4" fill-opacity="0.038"/>
<circle id="Grid dot_31" cx="594.75" cy="90.75" r="0.75" fill="#B9C6D4" fill-opacity="0.038"/>
<circle id="Grid dot_32" cx="650.75" cy="90.75" r="0.75" fill="#B9C6D4" fill-opacity="0.038"/>
<circle id="Grid dot_33" cx="706.75" cy="90.75" r="0.75" fill="#B9C6D4" fill-opacity="0.038"/>
<circle id="Grid dot_34" cx="762.75" cy="90.75" r="0.75" fill="#B9C6D4" fill-opacity="0.038"/>
<circle id="Grid dot_35" cx="818.75" cy="90.75" r="0.75" fill="#B9C6D4" fill-opacity="0.038"/>
<circle id="Grid dot_36" cx="874.75" cy="90.75" r="0.75" fill="#B9C6D4" fill-opacity="0.038"/>
<circle id="Grid dot_37" cx="930.75" cy="90.75" r="0.75" fill="#B9C6D4" fill-opacity="0.038"/>
<circle id="Grid dot_38" cx="986.75" cy="90.75" r="0.75" fill="#B9C6D4" fill-opacity="0.038"/>
<circle id="Grid dot_39" cx="1042.75" cy="90.75" r="0.75" fill="#B9C6D4" fill-opacity="0.038"/>
<circle id="Grid dot_40" cx="1098.75" cy="90.75" r="0.75" fill="#B9C6D4" fill-opacity="0.038"/>
<circle id="Grid dot_41" cx="34.75" cy="146.75" r="0.75" fill="#B9C6D4" fill-opacity="0.038"/>
<circle id="Grid dot_42" cx="90.75" cy="146.75" r="0.75" fill="#B9C6D4" fill-opacity="0.038"/>
<circle id="Grid dot_43" cx="146.75" cy="146.75" r="0.75" fill="#B9C6D4" fill-opacity="0.038"/>
<circle id="Grid dot_44" cx="202.75" cy="146.75" r="0.75" fill="#B9C6D4" fill-opacity="0.038"/>
<circle id="Grid dot_45" cx="258.75" cy="146.75" r="0.75" fill="#B9C6D4" fill-opacity="0.038"/>
<circle id="Grid dot_46" cx="314.75" cy="146.75" r="0.75" fill="#B9C6D4" fill-opacity="0.038"/>
<circle id="Grid dot_47" cx="370.75" cy="146.75" r="0.75" fill="#B9C6D4" fill-opacity="0.038"/>
<circle id="Grid dot_48" cx="426.75" cy="146.75" r="0.75" fill="#B9C6D4" fill-opacity="0.038"/>
<circle id="Grid dot_49" cx="482.75" cy="146.75" r="0.75" fill="#B9C6D4" fill-opacity="0.038"/>
<circle id="Grid dot_50" cx="538.75" cy="146.75" r="0.75" fill="#B9C6D4" fill-opacity="0.038"/>
<circle id="Grid dot_51" cx="594.75" cy="146.75" r="0.75" fill="#B9C6D4" fill-opacity="0.038"/>
<circle id="Grid dot_52" cx="650.75" cy="146.75" r="0.75" fill="#B9C6D4" fill-opacity="0.038"/>
<circle id="Grid dot_53" cx="706.75" cy="146.75" r="0.75" fill="#B9C6D4" fill-opacity="0.038"/>
<circle id="Grid dot_54" cx="762.75" cy="146.75" r="0.75" fill="#B9C6D4" fill-opacity="0.038"/>
<circle id="Grid dot_55" cx="818.75" cy="146.75" r="0.75" fill="#B9C6D4" fill-opacity="0.038"/>
<circle id="Grid dot_56" cx="874.75" cy="146.75" r="0.75" fill="#B9C6D4" fill-opacity="0.038"/>
<circle id="Grid dot_57" cx="930.75" cy="146.75" r="0.75" fill="#B9C6D4" fill-opacity="0.038"/>
<circle id="Grid dot_58" cx="986.75" cy="146.75" r="0.75" fill="#B9C6D4" fill-opacity="0.038"/>
<circle id="Grid dot_59" cx="1042.75" cy="146.75" r="0.75" fill="#B9C6D4" fill-opacity="0.038"/>
<circle id="Grid dot_60" cx="1098.75" cy="146.75" r="0.75" fill="#B9C6D4" fill-opacity="0.038"/>
<circle id="Grid dot_61" cx="34.75" cy="202.75" r="0.75" fill="#B9C6D4" fill-opacity="0.038"/>
<circle id="Grid dot_62" cx="90.75" cy="202.75" r="0.75" fill="#B9C6D4" fill-opacity="0.038"/>
<circle id="Grid dot_63" cx="146.75" cy="202.75" r="0.75" fill="#B9C6D4" fill-opacity="0.038"/>
<circle id="Grid dot_64" cx="202.75" cy="202.75" r="0.75" fill="#B9C6D4" fill-opacity="0.038"/>
<circle id="Grid dot_65" cx="258.75" cy="202.75" r="0.75" fill="#B9C6D4" fill-opacity="0.038"/>
<circle id="Grid dot_66" cx="314.75" cy="202.75" r="0.75" fill="#B9C6D4" fill-opacity="0.038"/>
<circle id="Grid dot_67" cx="370.75" cy="202.75" r="0.75" fill="#B9C6D4" fill-opacity="0.038"/>
<circle id="Grid dot_68" cx="426.75" cy="202.75" r="0.75" fill="#B9C6D4" fill-opacity="0.038"/>
<circle id="Grid dot_69" cx="482.75" cy="202.75" r="0.75" fill="#B9C6D4" fill-opacity="0.038"/>
<circle id="Grid dot_70" cx="538.75" cy="202.75" r="0.75" fill="#B9C6D4" fill-opacity="0.038"/>
<circle id="Grid dot_71" cx="594.75" cy="202.75" r="0.75" fill="#B9C6D4" fill-opacity="0.038"/>
<circle id="Grid dot_72" cx="650.75" cy="202.75" r="0.75" fill="#B9C6D4" fill-opacity="0.038"/>
<circle id="Grid dot_73" cx="706.75" cy="202.75" r="0.75" fill="#B9C6D4" fill-opacity="0.038"/>
<circle id="Grid dot_74" cx="762.75" cy="202.75" r="0.75" fill="#B9C6D4" fill-opacity="0.038"/>
<circle id="Grid dot_75" cx="818.75" cy="202.75" r="0.75" fill="#B9C6D4" fill-opacity="0.038"/>
<circle id="Grid dot_76" cx="874.75" cy="202.75" r="0.75" fill="#B9C6D4" fill-opacity="0.038"/>
<circle id="Grid dot_77" cx="930.75" cy="202.75" r="0.75" fill="#B9C6D4" fill-opacity="0.038"/>
<circle id="Grid dot_78" cx="986.75" cy="202.75" r="0.75" fill="#B9C6D4" fill-opacity="0.038"/>
<circle id="Grid dot_79" cx="1042.75" cy="202.75" r="0.75" fill="#B9C6D4" fill-opacity="0.038"/>
<circle id="Grid dot_80" cx="1098.75" cy="202.75" r="0.75" fill="#B9C6D4" fill-opacity="0.038"/>
<circle id="Grid dot_81" cx="34.75" cy="258.75" r="0.75" fill="#B9C6D4" fill-opacity="0.038"/>
<circle id="Grid dot_82" cx="90.75" cy="258.75" r="0.75" fill="#B9C6D4" fill-opacity="0.038"/>
<circle id="Grid dot_83" cx="146.75" cy="258.75" r="0.75" fill="#B9C6D4" fill-opacity="0.038"/>
<circle id="Grid dot_84" cx="202.75" cy="258.75" r="0.75" fill="#B9C6D4" fill-opacity="0.038"/>
<circle id="Grid dot_85" cx="258.75" cy="258.75" r="0.75" fill="#B9C6D4" fill-opacity="0.038"/>
<circle id="Grid dot_86" cx="314.75" cy="258.75" r="0.75" fill="#B9C6D4" fill-opacity="0.038"/>
<circle id="Grid dot_87" cx="370.75" cy="258.75" r="0.75" fill="#B9C6D4" fill-opacity="0.038"/>
<circle id="Grid dot_88" cx="426.75" cy="258.75" r="0.75" fill="#B9C6D4" fill-opacity="0.038"/>
<circle id="Grid dot_89" cx="482.75" cy="258.75" r="0.75" fill="#B9C6D4" fill-opacity="0.038"/>
<circle id="Grid dot_90" cx="538.75" cy="258.75" r="0.75" fill="#B9C6D4" fill-opacity="0.038"/>
<circle id="Grid dot_91" cx="594.75" cy="258.75" r="0.75" fill="#B9C6D4" fill-opacity="0.038"/>
<circle id="Grid dot_92" cx="650.75" cy="258.75" r="0.75" fill="#B9C6D4" fill-opacity="0.038"/>
<circle id="Grid dot_93" cx="706.75" cy="258.75" r="0.75" fill="#B9C6D4" fill-opacity="0.038"/>
<circle id="Grid dot_94" cx="762.75" cy="258.75" r="0.75" fill="#B9C6D4" fill-opacity="0.038"/>
<circle id="Grid dot_95" cx="818.75" cy="258.75" r="0.75" fill="#B9C6D4" fill-opacity="0.038"/>
<circle id="Grid dot_96" cx="874.75" cy="258.75" r="0.75" fill="#B9C6D4" fill-opacity="0.038"/>
<circle id="Grid dot_97" cx="930.75" cy="258.75" r="0.75" fill="#B9C6D4" fill-opacity="0.038"/>
<circle id="Grid dot_98" cx="986.75" cy="258.75" r="0.75" fill="#B9C6D4" fill-opacity="0.038"/>
<circle id="Grid dot_99" cx="1042.75" cy="258.75" r="0.75" fill="#B9C6D4" fill-opacity="0.038"/>
<circle id="Grid dot_100" cx="1098.75" cy="258.75" r="0.75" fill="#B9C6D4" fill-opacity="0.038"/>
<circle id="Grid dot_101" cx="34.75" cy="314.75" r="0.75" fill="#B9C6D4" fill-opacity="0.038"/>
<circle id="Grid dot_102" cx="90.75" cy="314.75" r="0.75" fill="#B9C6D4" fill-opacity="0.038"/>
<circle id="Grid dot_103" cx="146.75" cy="314.75" r="0.75" fill="#B9C6D4" fill-opacity="0.038"/>
<circle id="Grid dot_104" cx="202.75" cy="314.75" r="0.75" fill="#B9C6D4" fill-opacity="0.038"/>
<circle id="Grid dot_105" cx="258.75" cy="314.75" r="0.75" fill="#B9C6D4" fill-opacity="0.038"/>
<circle id="Grid dot_106" cx="314.75" cy="314.75" r="0.75" fill="#B9C6D4" fill-opacity="0.038"/>
<circle id="Grid dot_107" cx="370.75" cy="314.75" r="0.75" fill="#B9C6D4" fill-opacity="0.038"/>
<circle id="Grid dot_108" cx="426.75" cy="314.75" r="0.75" fill="#B9C6D4" fill-opacity="0.038"/>
<circle id="Grid dot_109" cx="482.75" cy="314.75" r="0.75" fill="#B9C6D4" fill-opacity="0.038"/>
<circle id="Grid dot_110" cx="538.75" cy="314.75" r="0.75" fill="#B9C6D4" fill-opacity="0.038"/>
<circle id="Grid dot_111" cx="594.75" cy="314.75" r="0.75" fill="#B9C6D4" fill-opacity="0.038"/>
<circle id="Grid dot_112" cx="650.75" cy="314.75" r="0.75" fill="#B9C6D4" fill-opacity="0.038"/>
<circle id="Grid dot_113" cx="706.75" cy="314.75" r="0.75" fill="#B9C6D4" fill-opacity="0.038"/>
<circle id="Grid dot_114" cx="762.75" cy="314.75" r="0.75" fill="#B9C6D4" fill-opacity="0.038"/>
<circle id="Grid dot_115" cx="818.75" cy="314.75" r="0.75" fill="#B9C6D4" fill-opacity="0.038"/>
<circle id="Grid dot_116" cx="874.75" cy="314.75" r="0.75" fill="#B9C6D4" fill-opacity="0.038"/>
<circle id="Grid dot_117" cx="930.75" cy="314.75" r="0.75" fill="#B9C6D4" fill-opacity="0.038"/>
<circle id="Grid dot_118" cx="986.75" cy="314.75" r="0.75" fill="#B9C6D4" fill-opacity="0.038"/>
<circle id="Grid dot_119" cx="1042.75" cy="314.75" r="0.75" fill="#B9C6D4" fill-opacity="0.038"/>
<circle id="Grid dot_120" cx="1098.75" cy="314.75" r="0.75" fill="#B9C6D4" fill-opacity="0.038"/>
<circle id="Grid dot_121" cx="34.75" cy="370.75" r="0.75" fill="#B9C6D4" fill-opacity="0.038"/>
<circle id="Grid dot_122" cx="90.75" cy="370.75" r="0.75" fill="#B9C6D4" fill-opacity="0.038"/>
<circle id="Grid dot_123" cx="146.75" cy="370.75" r="0.75" fill="#B9C6D4" fill-opacity="0.038"/>
<circle id="Grid dot_124" cx="202.75" cy="370.75" r="0.75" fill="#B9C6D4" fill-opacity="0.038"/>
<circle id="Grid dot_125" cx="258.75" cy="370.75" r="0.75" fill="#B9C6D4" fill-opacity="0.038"/>
<circle id="Grid dot_126" cx="314.75" cy="370.75" r="0.75" fill="#B9C6D4" fill-opacity="0.038"/>
<circle id="Grid dot_127" cx="370.75" cy="370.75" r="0.75" fill="#B9C6D4" fill-opacity="0.038"/>
<circle id="Grid dot_128" cx="426.75" cy="370.75" r="0.75" fill="#B9C6D4" fill-opacity="0.038"/>
<circle id="Grid dot_129" cx="482.75" cy="370.75" r="0.75" fill="#B9C6D4" fill-opacity="0.038"/>
<circle id="Grid dot_130" cx="538.75" cy="370.75" r="0.75" fill="#B9C6D4" fill-opacity="0.038"/>
<circle id="Grid dot_131" cx="594.75" cy="370.75" r="0.75" fill="#B9C6D4" fill-opacity="0.038"/>
<circle id="Grid dot_132" cx="650.75" cy="370.75" r="0.75" fill="#B9C6D4" fill-opacity="0.038"/>
<circle id="Grid dot_133" cx="706.75" cy="370.75" r="0.75" fill="#B9C6D4" fill-opacity="0.038"/>
<circle id="Grid dot_134" cx="762.75" cy="370.75" r="0.75" fill="#B9C6D4" fill-opacity="0.038"/>
<circle id="Grid dot_135" cx="818.75" cy="370.75" r="0.75" fill="#B9C6D4" fill-opacity="0.038"/>
<circle id="Grid dot_136" cx="874.75" cy="370.75" r="0.75" fill="#B9C6D4" fill-opacity="0.038"/>
<circle id="Grid dot_137" cx="930.75" cy="370.75" r="0.75" fill="#B9C6D4" fill-opacity="0.038"/>
<circle id="Grid dot_138" cx="986.75" cy="370.75" r="0.75" fill="#B9C6D4" fill-opacity="0.038"/>
<circle id="Grid dot_139" cx="1042.75" cy="370.75" r="0.75" fill="#B9C6D4" fill-opacity="0.038"/>
<circle id="Grid dot_140" cx="1098.75" cy="370.75" r="0.75" fill="#B9C6D4" fill-opacity="0.038"/>
<circle id="Grid dot_141" cx="34.75" cy="426.75" r="0.75" fill="#B9C6D4" fill-opacity="0.038"/>
<circle id="Grid dot_142" cx="90.75" cy="426.75" r="0.75" fill="#B9C6D4" fill-opacity="0.038"/>
<circle id="Grid dot_143" cx="146.75" cy="426.75" r="0.75" fill="#B9C6D4" fill-opacity="0.038"/>
<circle id="Grid dot_144" cx="202.75" cy="426.75" r="0.75" fill="#B9C6D4" fill-opacity="0.038"/>
<circle id="Grid dot_145" cx="258.75" cy="426.75" r="0.75" fill="#B9C6D4" fill-opacity="0.038"/>
<circle id="Grid dot_146" cx="314.75" cy="426.75" r="0.75" fill="#B9C6D4" fill-opacity="0.038"/>
<circle id="Grid dot_147" cx="370.75" cy="426.75" r="0.75" fill="#B9C6D4" fill-opacity="0.038"/>
<circle id="Grid dot_148" cx="426.75" cy="426.75" r="0.75" fill="#B9C6D4" fill-opacity="0.038"/>
<circle id="Grid dot_149" cx="482.75" cy="426.75" r="0.75" fill="#B9C6D4" fill-opacity="0.038"/>
<circle id="Grid dot_150" cx="538.75" cy="426.75" r="0.75" fill="#B9C6D4" fill-opacity="0.038"/>
<circle id="Grid dot_151" cx="594.75" cy="426.75" r="0.75" fill="#B9C6D4" fill-opacity="0.038"/>
<circle id="Grid dot_152" cx="650.75" cy="426.75" r="0.75" fill="#B9C6D4" fill-opacity="0.038"/>
<circle id="Grid dot_153" cx="706.75" cy="426.75" r="0.75" fill="#B9C6D4" fill-opacity="0.038"/>
<circle id="Grid dot_154" cx="762.75" cy="426.75" r="0.75" fill="#B9C6D4" fill-opacity="0.038"/>
<circle id="Grid dot_155" cx="818.75" cy="426.75" r="0.75" fill="#B9C6D4" fill-opacity="0.038"/>
<circle id="Grid dot_156" cx="874.75" cy="426.75" r="0.75" fill="#B9C6D4" fill-opacity="0.038"/>
<circle id="Grid dot_157" cx="930.75" cy="426.75" r="0.75" fill="#B9C6D4" fill-opacity="0.038"/>
<circle id="Grid dot_158" cx="986.75" cy="426.75" r="0.75" fill="#B9C6D4" fill-opacity="0.038"/>
<circle id="Grid dot_159" cx="1042.75" cy="426.75" r="0.75" fill="#B9C6D4" fill-opacity="0.038"/>
<circle id="Grid dot_160" cx="1098.75" cy="426.75" r="0.75" fill="#B9C6D4" fill-opacity="0.038"/>
<circle id="Grid dot_161" cx="34.75" cy="482.75" r="0.75" fill="#B9C6D4" fill-opacity="0.038"/>
<circle id="Grid dot_162" cx="90.75" cy="482.75" r="0.75" fill="#B9C6D4" fill-opacity="0.038"/>
<circle id="Grid dot_163" cx="146.75" cy="482.75" r="0.75" fill="#B9C6D4" fill-opacity="0.038"/>
<circle id="Grid dot_164" cx="202.75" cy="482.75" r="0.75" fill="#B9C6D4" fill-opacity="0.038"/>
<circle id="Grid dot_165" cx="258.75" cy="482.75" r="0.75" fill="#B9C6D4" fill-opacity="0.038"/>
<circle id="Grid dot_166" cx="314.75" cy="482.75" r="0.75" fill="#B9C6D4" fill-opacity="0.038"/>
<circle id="Grid dot_167" cx="370.75" cy="482.75" r="0.75" fill="#B9C6D4" fill-opacity="0.038"/>
<circle id="Grid dot_168" cx="426.75" cy="482.75" r="0.75" fill="#B9C6D4" fill-opacity="0.038"/>
<circle id="Grid dot_169" cx="482.75" cy="482.75" r="0.75" fill="#B9C6D4" fill-opacity="0.038"/>
<circle id="Grid dot_170" cx="538.75" cy="482.75" r="0.75" fill="#B9C6D4" fill-opacity="0.038"/>
<circle id="Grid dot_171" cx="594.75" cy="482.75" r="0.75" fill="#B9C6D4" fill-opacity="0.038"/>
<circle id="Grid dot_172" cx="650.75" cy="482.75" r="0.75" fill="#B9C6D4" fill-opacity="0.038"/>
<circle id="Grid dot_173" cx="706.75" cy="482.75" r="0.75" fill="#B9C6D4" fill-opacity="0.038"/>
<circle id="Grid dot_174" cx="762.75" cy="482.75" r="0.75" fill="#B9C6D4" fill-opacity="0.038"/>
<circle id="Grid dot_175" cx="818.75" cy="482.75" r="0.75" fill="#B9C6D4" fill-opacity="0.038"/>
<circle id="Grid dot_176" cx="874.75" cy="482.75" r="0.75" fill="#B9C6D4" fill-opacity="0.038"/>
<circle id="Grid dot_177" cx="930.75" cy="482.75" r="0.75" fill="#B9C6D4" fill-opacity="0.038"/>
<circle id="Grid dot_178" cx="986.75" cy="482.75" r="0.75" fill="#B9C6D4" fill-opacity="0.038"/>
<circle id="Grid dot_179" cx="1042.75" cy="482.75" r="0.75" fill="#B9C6D4" fill-opacity="0.038"/>
<circle id="Grid dot_180" cx="1098.75" cy="482.75" r="0.75" fill="#B9C6D4" fill-opacity="0.038"/>
<circle id="Grid dot_181" cx="34.75" cy="538.75" r="0.75" fill="#B9C6D4" fill-opacity="0.038"/>
<circle id="Grid dot_182" cx="90.75" cy="538.75" r="0.75" fill="#B9C6D4" fill-opacity="0.038"/>
<circle id="Grid dot_183" cx="146.75" cy="538.75" r="0.75" fill="#B9C6D4" fill-opacity="0.038"/>
<circle id="Grid dot_184" cx="202.75" cy="538.75" r="0.75" fill="#B9C6D4" fill-opacity="0.038"/>
<circle id="Grid dot_185" cx="258.75" cy="538.75" r="0.75" fill="#B9C6D4" fill-opacity="0.038"/>
<circle id="Grid dot_186" cx="314.75" cy="538.75" r="0.75" fill="#B9C6D4" fill-opacity="0.038"/>
<circle id="Grid dot_187" cx="370.75" cy="538.75" r="0.75" fill="#B9C6D4" fill-opacity="0.038"/>
<circle id="Grid dot_188" cx="426.75" cy="538.75" r="0.75" fill="#B9C6D4" fill-opacity="0.038"/>
<circle id="Grid dot_189" cx="482.75" cy="538.75" r="0.75" fill="#B9C6D4" fill-opacity="0.038"/>
<circle id="Grid dot_190" cx="538.75" cy="538.75" r="0.75" fill="#B9C6D4" fill-opacity="0.038"/>
<circle id="Grid dot_191" cx="594.75" cy="538.75" r="0.75" fill="#B9C6D4" fill-opacity="0.038"/>
<circle id="Grid dot_192" cx="650.75" cy="538.75" r="0.75" fill="#B9C6D4" fill-opacity="0.038"/>
<circle id="Grid dot_193" cx="706.75" cy="538.75" r="0.75" fill="#B9C6D4" fill-opacity="0.038"/>
<circle id="Grid dot_194" cx="762.75" cy="538.75" r="0.75" fill="#B9C6D4" fill-opacity="0.038"/>
<circle id="Grid dot_195" cx="818.75" cy="538.75" r="0.75" fill="#B9C6D4" fill-opacity="0.038"/>
<circle id="Grid dot_196" cx="874.75" cy="538.75" r="0.75" fill="#B9C6D4" fill-opacity="0.038"/>
<circle id="Grid dot_197" cx="930.75" cy="538.75" r="0.75" fill="#B9C6D4" fill-opacity="0.038"/>
<circle id="Grid dot_198" cx="986.75" cy="538.75" r="0.75" fill="#B9C6D4" fill-opacity="0.038"/>
<circle id="Grid dot_199" cx="1042.75" cy="538.75" r="0.75" fill="#B9C6D4" fill-opacity="0.038"/>
<circle id="Grid dot_200" cx="1098.75" cy="538.75" r="0.75" fill="#B9C6D4" fill-opacity="0.038"/>
<circle id="Grid dot_201" cx="34.75" cy="594.75" r="0.75" fill="#B9C6D4" fill-opacity="0.038"/>
<circle id="Grid dot_202" cx="90.75" cy="594.75" r="0.75" fill="#B9C6D4" fill-opacity="0.038"/>
<circle id="Grid dot_203" cx="146.75" cy="594.75" r="0.75" fill="#B9C6D4" fill-opacity="0.038"/>
<circle id="Grid dot_204" cx="202.75" cy="594.75" r="0.75" fill="#B9C6D4" fill-opacity="0.038"/>
<circle id="Grid dot_205" cx="258.75" cy="594.75" r="0.75" fill="#B9C6D4" fill-opacity="0.038"/>
<circle id="Grid dot_206" cx="314.75" cy="594.75" r="0.75" fill="#B9C6D4" fill-opacity="0.038"/>
<circle id="Grid dot_207" cx="370.75" cy="594.75" r="0.75" fill="#B9C6D4" fill-opacity="0.038"/>
<circle id="Grid dot_208" cx="426.75" cy="594.75" r="0.75" fill="#B9C6D4" fill-opacity="0.038"/>
<circle id="Grid dot_209" cx="482.75" cy="594.75" r="0.75" fill="#B9C6D4" fill-opacity="0.038"/>
<circle id="Grid dot_210" cx="538.75" cy="594.75" r="0.75" fill="#B9C6D4" fill-opacity="0.038"/>
<circle id="Grid dot_211" cx="594.75" cy="594.75" r="0.75" fill="#B9C6D4" fill-opacity="0.038"/>
<circle id="Grid dot_212" cx="650.75" cy="594.75" r="0.75" fill="#B9C6D4" fill-opacity="0.038"/>
<circle id="Grid dot_213" cx="706.75" cy="594.75" r="0.75" fill="#B9C6D4" fill-opacity="0.038"/>
<circle id="Grid dot_214" cx="762.75" cy="594.75" r="0.75" fill="#B9C6D4" fill-opacity="0.038"/>
<circle id="Grid dot_215" cx="818.75" cy="594.75" r="0.75" fill="#B9C6D4" fill-opacity="0.038"/>
<circle id="Grid dot_216" cx="874.75" cy="594.75" r="0.75" fill="#B9C6D4" fill-opacity="0.038"/>
<circle id="Grid dot_217" cx="930.75" cy="594.75" r="0.75" fill="#B9C6D4" fill-opacity="0.038"/>
<circle id="Grid dot_218" cx="986.75" cy="594.75" r="0.75" fill="#B9C6D4" fill-opacity="0.038"/>
<circle id="Grid dot_219" cx="1042.75" cy="594.75" r="0.75" fill="#B9C6D4" fill-opacity="0.038"/>
<circle id="Grid dot_220" cx="1098.75" cy="594.75" r="0.75" fill="#B9C6D4" fill-opacity="0.038"/>
<circle id="Grid dot_221" cx="34.75" cy="650.75" r="0.75" fill="#B9C6D4" fill-opacity="0.038"/>
<circle id="Grid dot_222" cx="90.75" cy="650.75" r="0.75" fill="#B9C6D4" fill-opacity="0.038"/>
<circle id="Grid dot_223" cx="146.75" cy="650.75" r="0.75" fill="#B9C6D4" fill-opacity="0.038"/>
<circle id="Grid dot_224" cx="202.75" cy="650.75" r="0.75" fill="#B9C6D4" fill-opacity="0.038"/>
<circle id="Grid dot_225" cx="258.75" cy="650.75" r="0.75" fill="#B9C6D4" fill-opacity="0.038"/>
<circle id="Grid dot_226" cx="314.75" cy="650.75" r="0.75" fill="#B9C6D4" fill-opacity="0.038"/>
<circle id="Grid dot_227" cx="370.75" cy="650.75" r="0.75" fill="#B9C6D4" fill-opacity="0.038"/>
<circle id="Grid dot_228" cx="426.75" cy="650.75" r="0.75" fill="#B9C6D4" fill-opacity="0.038"/>
<circle id="Grid dot_229" cx="482.75" cy="650.75" r="0.75" fill="#B9C6D4" fill-opacity="0.038"/>
<circle id="Grid dot_230" cx="538.75" cy="650.75" r="0.75" fill="#B9C6D4" fill-opacity="0.038"/>
<circle id="Grid dot_231" cx="594.75" cy="650.75" r="0.75" fill="#B9C6D4" fill-opacity="0.038"/>
<circle id="Grid dot_232" cx="650.75" cy="650.75" r="0.75" fill="#B9C6D4" fill-opacity="0.038"/>
<circle id="Grid dot_233" cx="706.75" cy="650.75" r="0.75" fill="#B9C6D4" fill-opacity="0.038"/>
<circle id="Grid dot_234" cx="762.75" cy="650.75" r="0.75" fill="#B9C6D4" fill-opacity="0.038"/>
<circle id="Grid dot_235" cx="818.75" cy="650.75" r="0.75" fill="#B9C6D4" fill-opacity="0.038"/>
<circle id="Grid dot_236" cx="874.75" cy="650.75" r="0.75" fill="#B9C6D4" fill-opacity="0.038"/>
<circle id="Grid dot_237" cx="930.75" cy="650.75" r="0.75" fill="#B9C6D4" fill-opacity="0.038"/>
<circle id="Grid dot_238" cx="986.75" cy="650.75" r="0.75" fill="#B9C6D4" fill-opacity="0.038"/>
<circle id="Grid dot_239" cx="1042.75" cy="650.75" r="0.75" fill="#B9C6D4" fill-opacity="0.038"/>
<circle id="Grid dot_240" cx="1098.75" cy="650.75" r="0.75" fill="#B9C6D4" fill-opacity="0.038"/>
<circle id="Grid dot_241" cx="34.75" cy="706.75" r="0.75" fill="#B9C6D4" fill-opacity="0.038"/>
<circle id="Grid dot_242" cx="90.75" cy="706.75" r="0.75" fill="#B9C6D4" fill-opacity="0.038"/>
<circle id="Grid dot_243" cx="146.75" cy="706.75" r="0.75" fill="#B9C6D4" fill-opacity="0.038"/>
<circle id="Grid dot_244" cx="202.75" cy="706.75" r="0.75" fill="#B9C6D4" fill-opacity="0.038"/>
<circle id="Grid dot_245" cx="258.75" cy="706.75" r="0.75" fill="#B9C6D4" fill-opacity="0.038"/>
<circle id="Grid dot_246" cx="314.75" cy="706.75" r="0.75" fill="#B9C6D4" fill-opacity="0.038"/>
<circle id="Grid dot_247" cx="370.75" cy="706.75" r="0.75" fill="#B9C6D4" fill-opacity="0.038"/>
<circle id="Grid dot_248" cx="426.75" cy="706.75" r="0.75" fill="#B9C6D4" fill-opacity="0.038"/>
<circle id="Grid dot_249" cx="482.75" cy="706.75" r="0.75" fill="#B9C6D4" fill-opacity="0.038"/>
<circle id="Grid dot_250" cx="538.75" cy="706.75" r="0.75" fill="#B9C6D4" fill-opacity="0.038"/>
<circle id="Grid dot_251" cx="594.75" cy="706.75" r="0.75" fill="#B9C6D4" fill-opacity="0.038"/>
<circle id="Grid dot_252" cx="650.75" cy="706.75" r="0.75" fill="#B9C6D4" fill-opacity="0.038"/>
<circle id="Grid dot_253" cx="706.75" cy="706.75" r="0.75" fill="#B9C6D4" fill-opacity="0.038"/>
<circle id="Grid dot_254" cx="762.75" cy="706.75" r="0.75" fill="#B9C6D4" fill-opacity="0.038"/>
<circle id="Grid dot_255" cx="818.75" cy="706.75" r="0.75" fill="#B9C6D4" fill-opacity="0.038"/>
<circle id="Grid dot_256" cx="874.75" cy="706.75" r="0.75" fill="#B9C6D4" fill-opacity="0.038"/>
<circle id="Grid dot_257" cx="930.75" cy="706.75" r="0.75" fill="#B9C6D4" fill-opacity="0.038"/>
<circle id="Grid dot_258" cx="986.75" cy="706.75" r="0.75" fill="#B9C6D4" fill-opacity="0.038"/>
<circle id="Grid dot_259" cx="1042.75" cy="706.75" r="0.75" fill="#B9C6D4" fill-opacity="0.038"/>
<circle id="Grid dot_260" cx="1098.75" cy="706.75" r="0.75" fill="#B9C6D4" fill-opacity="0.038"/>
<circle id="Grid dot_261" cx="34.75" cy="762.75" r="0.75" fill="#B9C6D4" fill-opacity="0.038"/>
<circle id="Grid dot_262" cx="90.75" cy="762.75" r="0.75" fill="#B9C6D4" fill-opacity="0.038"/>
<circle id="Grid dot_263" cx="146.75" cy="762.75" r="0.75" fill="#B9C6D4" fill-opacity="0.038"/>
<circle id="Grid dot_264" cx="202.75" cy="762.75" r="0.75" fill="#B9C6D4" fill-opacity="0.038"/>
<circle id="Grid dot_265" cx="258.75" cy="762.75" r="0.75" fill="#B9C6D4" fill-opacity="0.038"/>
<circle id="Grid dot_266" cx="314.75" cy="762.75" r="0.75" fill="#B9C6D4" fill-opacity="0.038"/>
<circle id="Grid dot_267" cx="370.75" cy="762.75" r="0.75" fill="#B9C6D4" fill-opacity="0.038"/>
<circle id="Grid dot_268" cx="426.75" cy="762.75" r="0.75" fill="#B9C6D4" fill-opacity="0.038"/>
<circle id="Grid dot_269" cx="482.75" cy="762.75" r="0.75" fill="#B9C6D4" fill-opacity="0.038"/>
<circle id="Grid dot_270" cx="538.75" cy="762.75" r="0.75" fill="#B9C6D4" fill-opacity="0.038"/>
<circle id="Grid dot_271" cx="594.75" cy="762.75" r="0.75" fill="#B9C6D4" fill-opacity="0.038"/>
<circle id="Grid dot_272" cx="650.75" cy="762.75" r="0.75" fill="#B9C6D4" fill-opacity="0.038"/>
<circle id="Grid dot_273" cx="706.75" cy="762.75" r="0.75" fill="#B9C6D4" fill-opacity="0.038"/>
<circle id="Grid dot_274" cx="762.75" cy="762.75" r="0.75" fill="#B9C6D4" fill-opacity="0.038"/>
<circle id="Grid dot_275" cx="818.75" cy="762.75" r="0.75" fill="#B9C6D4" fill-opacity="0.038"/>
<circle id="Grid dot_276" cx="874.75" cy="762.75" r="0.75" fill="#B9C6D4" fill-opacity="0.038"/>
<circle id="Grid dot_277" cx="930.75" cy="762.75" r="0.75" fill="#B9C6D4" fill-opacity="0.038"/>
<circle id="Grid dot_278" cx="986.75" cy="762.75" r="0.75" fill="#B9C6D4" fill-opacity="0.038"/>
<circle id="Grid dot_279" cx="1042.75" cy="762.75" r="0.75" fill="#B9C6D4" fill-opacity="0.038"/>
<circle id="Grid dot_280" cx="1098.75" cy="762.75" r="0.75" fill="#B9C6D4" fill-opacity="0.038"/>
</g>
</svg>
